<?xml version="1.0" encoding="UTF-8" standalone="no"?>
<svg
   xmlns:dc="http://purl.org/dc/elements/1.1/"
   xmlns:cc="http://creativecommons.org/ns#"
   xmlns:rdf="http://www.w3.org/1999/02/22-rdf-syntax-ns#"
   xmlns:svg="http://www.w3.org/2000/svg"
   xmlns="http://www.w3.org/2000/svg"
   xmlns:sodipodi="http://sodipodi.sourceforge.net/DTD/sodipodi-0.dtd"
   xmlns:inkscape="http://www.inkscape.org/namespaces/inkscape"
   width="64"
   height="64"
   viewBox="0 0 16.933333 16.933334"
   version="1.1"
   id="svg8"
   inkscape:export-filename="C:\Users\alex\Desktop\bitmap.png"
   inkscape:export-xdpi="96"
   inkscape:export-ydpi="96"
   inkscape:version="1.0.2-2 (e86c870879, 2021-01-15)"
   sodipodi:docname="bones.svg">
  <defs
     id="defs2" />
  <sodipodi:namedview
     id="base"
     pagecolor="#ffffff"
     bordercolor="#666666"
     borderopacity="1.0"
     inkscape:pageopacity="0.0"
     inkscape:pageshadow="2"
     inkscape:zoom="0.98994949"
     inkscape:cx="-250.42467"
     inkscape:cy="-74.474048"
     inkscape:document-units="mm"
     inkscape:current-layer="layer1"
     inkscape:document-rotation="0"
     showgrid="false"
     units="px"
     inkscape:window-width="1920"
     inkscape:window-height="1027"
     inkscape:window-x="-8"
     inkscape:window-y="-8"
     inkscape:window-maximized="1" />
  <metadata
     id="metadata5">
    <rdf:RDF>
      <cc:Work
         rdf:about="">
        <dc:format>image/svg+xml</dc:format>
        <dc:type
           rdf:resource="http://purl.org/dc/dcmitype/StillImage" />
        <dc:title></dc:title>
      </cc:Work>
    </rdf:RDF>
  </metadata>
  <g
     inkscape:label="Capa 1"
     inkscape:groupmode="layer"
     id="layer1">
    <path
       id="path843"
       style="fill:#f9f9f9;stroke:#000000;stroke-width:0.180045;stroke-miterlimit:2.81;stroke-dasharray:none"
       d="M 14.484317,3.6807785 C 14.853712,4.275515 15.954876,4.614812 15.819899,5.3017944 15.6654,6.0881262 15.142371,6.1184282 14.662518,6.2672237 14.273885,6.3877335 13.8197,5.9890618 13.447226,6.152831 10.940323,7.2550642 8.3211988,9.4151541 5.8976652,11.291874 5.3054892,11.750439 4.6565877,12.211282 4.2960549,12.867766 4.1293247,13.17136 4.3916028,13.286939 4.078483,13.883827 3.8130501,14.389811 3.0341842,14.829595 2.5160214,14.5888 1.9030836,14.303961 1.9528143,13.345525 1.9616823,12.63838 1.3078856,12.409399 0.40102235,11.909899 0.40076389,11.203059 0.40060661,10.773109 0.93608265,10.44709 1.3495829,10.329303 1.7995085,10.20114 2.2643945,10.655973 2.728,10.593301 3.3883618,10.504031 3.9568503,10.063932 4.5210943,9.7094231 7.0737945,8.1055859 9.78733,6.6438573 11.773457,4.2127986 c 0.26115,-0.3196538 -0.04339,-0.6266679 0.265148,-1.2095858 0.305097,-0.5764034 0.874915,-1.066928 1.829777,-0.6927038 0.466249,0.18273 0.35171,0.9448696 0.615929,1.3702718 z"
       sodipodi:nodetypes="asassasacaaassssa" />
    <path
       id="path843-1"
       style="fill:#f9f9f9;stroke:#000000;stroke-width:0.180045;stroke-miterlimit:2.81;stroke-dasharray:none"
       d="m 1.1722446,6.4164654 c 0.3183668,-0.6235436 0.039961,-1.7416559 0.6978906,-1.981015 0.7530781,-0.2739727 1.0492432,0.158189 1.4245557,0.4921644 0.3039658,0.2704865 0.197276,0.8653314 0.529932,1.0996328 2.2389114,1.5769453 5.4415382,2.7034375 8.3004911,3.8088669 0.698568,0.2701065 1.428394,0.5876035 2.176742,0.5571215 0.346078,-0.0141 0.309532,-0.298372 0.982359,-0.338658 0.570358,-0.03415 1.349298,0.405501 1.410836,0.973557 0.07279,0.671958 -0.773513,1.12455 -1.383552,1.482301 0.141728,0.678082 0.182583,1.712602 -0.42248,2.078009 -0.368041,0.222267 -0.92383,-0.06777 -1.238312,-0.360956 C 13.308522,13.908478 13.457769,13.275455 13.164589,12.910896 12.746983,12.391615 12.076464,12.132251 11.48142,11.8323 8.7893751,10.475295 6.1359079,8.9071621 3.0283133,8.4626361 2.619704,8.4041881 2.5141778,8.8235521 1.8556791,8.8605441 1.2045359,8.8971161 0.49015505,8.6626651 0.31724055,7.6517721 0.23280845,7.1581634 0.94452805,6.8624757 1.1722497,6.4164694 Z"
       sodipodi:nodetypes="asassasacaaassssa" />
    <path
       id="path843-1-8"
       style="fill:#f9f9f9;stroke:#000000;stroke-width:0.133184;stroke-miterlimit:2.81;stroke-dasharray:none"
       d="M 3.2628199,13.328799 C 3.1452088,12.840672 2.4341118,12.353232 2.7044846,11.921207 c 0.3094746,-0.494502 0.6953753,-0.392211 1.0798458,-0.380032 0.3113826,0.0099 0.5396212,0.385546 0.8501949,0.362418 2.0902894,-0.155667 4.5277543,-0.999031 6.7525007,-1.697027 0.543604,-0.17055 1.128807,-0.3293265 1.554643,-0.6878319 0.196929,-0.165794 0.0363,-0.305358 0.412861,-0.634763 0.319211,-0.279238 0.993114,-0.3933 1.307325,-0.109165 0.37168,0.336107 0.0947,0.971362 -0.08953,1.4465919 0.415278,0.307991 0.945562,0.857968 0.768005,1.335132 -0.108003,0.290246 -0.577267,0.384638 -0.905951,0.367101 -0.357637,-0.01908 -0.579492,-0.435185 -0.930555,-0.501681 -0.500056,-0.09472 -1.021883,0.06892 -1.519119,0.175796 -2.2495464,0.483492 -4.5796823,0.83332 -6.6274702,2.008135 -0.2692574,0.154473 -0.1262016,0.433172 -0.4959338,0.754223 -0.3656055,0.317462 -0.9010755,0.514831 -1.4975761,0.03815 -0.2912652,-0.232759 -0.016775,-0.72031 -0.1008991,-1.069455 z"
       sodipodi:nodetypes="asassasacaaassssa" />
  </g>
</svg>
