<?xml version="1.0" encoding="UTF-8" standalone="no"?>
<svg
   xmlns:dc="http://purl.org/dc/elements/1.1/"
   xmlns:cc="http://creativecommons.org/ns#"
   xmlns:rdf="http://www.w3.org/1999/02/22-rdf-syntax-ns#"
   xmlns:svg="http://www.w3.org/2000/svg"
   xmlns="http://www.w3.org/2000/svg"
   xmlns:sodipodi="http://sodipodi.sourceforge.net/DTD/sodipodi-0.dtd"
   xmlns:inkscape="http://www.inkscape.org/namespaces/inkscape"
   width="64"
   height="64"
   viewBox="0 0 16.933333 16.933334"
   version="1.1"
   id="svg8"
   inkscape:export-filename="C:\Users\alex\Desktop\bitmap.png"
   inkscape:export-xdpi="96"
   inkscape:export-ydpi="96"
   inkscape:version="1.0.2-2 (e86c870879, 2021-01-15)"
   sodipodi:docname="humanOriginal.svg">
  <defs
     id="defs2" />
  <sodipodi:namedview
     id="base"
     pagecolor="#ffffff"
     bordercolor="#666666"
     borderopacity="1.0"
     inkscape:pageopacity="0.0"
     inkscape:pageshadow="2"
     inkscape:zoom="2.8"
     inkscape:cx="35.235211"
     inkscape:cy="60.854596"
     inkscape:document-units="mm"
     inkscape:current-layer="g1007"
     inkscape:document-rotation="0"
     showgrid="false"
     units="px"
     inkscape:window-width="1920"
     inkscape:window-height="1027"
     inkscape:window-x="-8"
     inkscape:window-y="-8"
     inkscape:window-maximized="1" />
  <metadata
     id="metadata5">
    <rdf:RDF>
      <cc:Work
         rdf:about="">
        <dc:format>image/svg+xml</dc:format>
        <dc:type
           rdf:resource="http://purl.org/dc/dcmitype/StillImage" />
        <dc:title></dc:title>
      </cc:Work>
    </rdf:RDF>
  </metadata>
  <g
     inkscape:label="Capa 1"
     inkscape:groupmode="layer"
     id="layer1"
     style="display:inline">
    <path
       id="path931"
       style="display:inline;fill:#e3dedb;fill-opacity:0.995984;stroke:#170b28;stroke-width:0.132292;stroke-miterlimit:2.81;stroke-dasharray:none"
       d="m 14.428351,5.3963212 c 0,1.652145 -0.04249,2.8717817 -1.501647,4.9152788 -1.184995,1.659529 -1.074335,4.394085 -4.2375076,4.349465 C 5.573289,14.617112 5.634472,12.034588 4.4072386,10.241437 3.0374728,8.240027 2.9500424,6.9754081 2.9500425,5.3963212 c 2e-7,-2.9938585 2.7705056,-5.02646061 5.6978466,-5.02646061 2.8689229,0 5.7804619,2.03260201 5.7804619,5.02646061 z"
       sodipodi:nodetypes="sssssss" />
    <path
       style="color:#000000;font-style:normal;font-variant:normal;font-weight:normal;font-stretch:normal;font-size:medium;line-height:normal;font-family:sans-serif;font-variant-ligatures:normal;font-variant-position:normal;font-variant-caps:normal;font-variant-numeric:normal;font-variant-alternates:normal;font-variant-east-asian:normal;font-feature-settings:normal;font-variation-settings:normal;text-indent:0;text-align:start;text-decoration:none;text-decoration-line:none;text-decoration-style:solid;text-decoration-color:#000000;letter-spacing:normal;word-spacing:normal;text-transform:none;writing-mode:lr-tb;direction:ltr;text-orientation:mixed;dominant-baseline:auto;baseline-shift:baseline;text-anchor:start;white-space:normal;shape-padding:0;shape-margin:0;inline-size:0;clip-rule:nonzero;display:inline;overflow:visible;visibility:visible;isolation:auto;mix-blend-mode:normal;color-interpolation:sRGB;color-interpolation-filters:linearRGB;solid-color:#000000;solid-opacity:1;vector-effect:none;fill:#ffffff;fill-opacity:0.995984;fill-rule:nonzero;stroke:none;stroke-width:0.132292;stroke-linecap:butt;stroke-linejoin:miter;stroke-miterlimit:2.81;stroke-dasharray:none;stroke-dashoffset:0;stroke-opacity:1;color-rendering:auto;image-rendering:auto;shape-rendering:auto;text-rendering:auto;enable-background:accumulate;stop-color:#000000"
       d="m 4.9512736,6.8546634 c -0.340564,0.235647 0.036597,0.6197813 0.8948302,0.6197813 0.858236,0 2.0893266,-0.1133436 1.8939065,-0.5362078 C 7.5889817,6.6114302 6.6376268,6.4479234 5.9675082,6.3882819 5.3086296,6.3296442 5.3461383,6.5814446 4.9512736,6.8546634 Z"
       id="path932" />
    <path
       id="rect3399-8"
       style="fill:#000000;fill-opacity:0.274194;stroke:none;stroke-width:0.132292;stroke-miterlimit:2.81;stroke-dasharray:none"
       d="M 7.7772718,6.8660468 C 7.3457188,7.3816962 6.3417701,7.7877231 5.4553681,7.4653478 4.8945398,7.2613805 4.4793926,6.6264513 4.1798741,6.0613635 3.7528,5.2556191 4.4648503,7.5143925 4.8782604,7.8458675 5.6388197,8.4556889 6.4443653,8.3009158 7.4849173,7.6830998 7.8319617,7.4770461 7.9977127,6.6026486 7.7772718,6.8660468 Z"
       sodipodi:nodetypes="sssass" />
    <path
       style="color:#000000;font-style:normal;font-variant:normal;font-weight:normal;font-stretch:normal;font-size:medium;line-height:normal;font-family:sans-serif;font-variant-ligatures:normal;font-variant-position:normal;font-variant-caps:normal;font-variant-numeric:normal;font-variant-alternates:normal;font-variant-east-asian:normal;font-feature-settings:normal;font-variation-settings:normal;text-indent:0;text-align:start;text-decoration:none;text-decoration-line:none;text-decoration-style:solid;text-decoration-color:#000000;letter-spacing:normal;word-spacing:normal;text-transform:none;writing-mode:lr-tb;direction:ltr;text-orientation:mixed;dominant-baseline:auto;baseline-shift:baseline;text-anchor:start;white-space:normal;shape-padding:0;shape-margin:0;inline-size:0;clip-rule:nonzero;display:inline;overflow:visible;visibility:visible;isolation:auto;mix-blend-mode:normal;color-interpolation:sRGB;color-interpolation-filters:linearRGB;solid-color:#000000;solid-opacity:1;vector-effect:none;fill:#170b28;fill-opacity:1;fill-rule:nonzero;stroke:none;stroke-width:0.132292;stroke-linecap:butt;stroke-linejoin:miter;stroke-miterlimit:2.81;stroke-dasharray:none;stroke-dashoffset:0;stroke-opacity:1;color-rendering:auto;image-rendering:auto;shape-rendering:auto;text-rendering:auto;enable-background:accumulate;stop-color:#000000"
       d="M 5.9782906,6.2534225 C 5.6325403,6.2226521 5.4293409,6.2790576 5.2819898,6.3871828 5.1346387,6.495308 5.0568685,6.6179493 4.8767977,6.7425457 4.7682804,6.8176322 4.692304,6.928407 4.6938712,7.0519909 c 0.00157,0.1235841 0.073593,0.2289203 0.1730918,0.3074489 0.1989961,0.1570572 0.5308418,0.2495526 0.9795418,0.2495526 0.4348964,0 0.9614739,-0.027093 1.3689984,-0.1117996 C 7.4192655,7.4548393 7.5931273,7.4013319 7.7229767,7.3115257 7.7879014,7.2666225 7.8444848,7.2102751 7.874432,7.1318478 7.9043793,7.0534204 7.8969961,6.9589181 7.8606633,6.8802988 7.8018833,6.7531063 7.6882353,6.6719708 7.5538189,6.6027962 7.4194025,6.5336217 7.2578702,6.4792316 7.0817506,6.4331005 6.7295111,6.3408381 6.3184385,6.2836962 5.9782906,6.2534225 Z m -0.021636,0.2695169 c 0.3299708,0.029368 0.7294952,0.085589 1.05822,0.1716922 0.1643624,0.043052 0.3115801,0.094471 0.4189607,0.1497315 0.1073806,0.055262 0.1681592,0.1155172 0.1848935,0.151728 0.012522,0.027097 0.011194,0.029222 0.00787,0.037932 -0.00332,0.00871 -0.018656,0.028716 -0.055074,0.053903 -0.072838,0.050376 -0.2222636,0.1049017 -0.409126,0.1437423 -0.3737248,0.077682 -0.892551,0.1078067 -1.3158907,0.1078067 -0.4095328,0 -0.6972832,-0.099731 -0.8162848,-0.1936528 -0.059501,-0.04696 -0.070623,-0.081111 -0.07081,-0.095828 -1.866e-4,-0.014717 0.00512,-0.041113 0.066876,-0.083849 0.2147939,-0.1486224 0.3157295,-0.2879354 0.4130599,-0.3593557 0.09733,-0.071421 0.20418,-0.111717 0.5173082,-0.083849 z"
       id="path934" />
    <path
       id="rect3245"
       style="display:inline;fill:#e3dbe2;fill-opacity:0.995984;stroke:#6c5d53;stroke-width:0.132292;stroke-miterlimit:2.81;stroke-dasharray:none"
       d="m 7.6905233,12.365452 c 0.4069224,-0.160922 0.8750885,-0.118141 1.0092262,-0.119878 0.169809,-0.0021 0.6555657,-0.03974 1.1369175,0.119878 0.1605838,0.05322 0.490339,0.713878 0,0.547483 -0.9602802,-0.325868 -1.263087,-0.29172 -2.2413066,-0.02414 -0.5308038,0.14519 -0.062029,-0.461173 0.095163,-0.523336 z"
       sodipodi:nodetypes="ssssss" />
    <path
       id="path855"
       style="fill:#483737;fill-opacity:0.923387;stroke-width:0.132292;stroke-miterlimit:2.81;stroke-dasharray:none"
       d="m 7.0040177,6.7855166 c 10e-8,0.3159071 -0.2447813,0.5720004 -0.5467344,0.5720004 -0.3019531,0 -0.5467345,-0.2560933 -0.5467345,-0.5720004 0,-0.3159072 0.2462246,-0.3236338 0.5481776,-0.3236338 0.3019532,0 0.5452914,0.00773 0.5452913,0.3236338 z"
       sodipodi:nodetypes="sssss" />
    <path
       id="path952"
       style="fill:#000000;stroke-width:0.132292;stroke-miterlimit:2.81;stroke-dasharray:none"
       d="M 8.5560155,10.765531 C 8.3750496,10.572913 8.0910984,10.623692 7.8557751,10.610112 7.6385382,10.553606 7.6049241,10.267985 7.6676958,10.083371 7.740554,9.8475575 7.9292359,9.6718108 8.0010896,9.4342867 8.1354265,9.0845817 8.1654545,8.7048679 8.1514724,8.3331547 8.1345978,8.2314388 8.2505298,7.9797264 8.2789866,8.2059663 8.298966,8.4548396 8.2384436,8.7019312 8.22683,8.9500798 8.1829243,9.2971486 8.0897791,9.6563526 7.8497596,9.9194935 7.7596019,10.043539 7.7087127,10.313706 7.900742,10.362878 c 0.1938106,-0.04595 0.3595405,0.05349 0.4976062,0.185335 0.1396047,0.1397 0.3531525,0.143748 0.4946583,0.0085 C 9.0280062,10.460327 9.177646,10.35487 9.3516836,10.373627 9.5333765,10.357886 9.6121509,10.125789 9.5094015,9.983054 9.3587693,9.6959667 9.1179135,9.4329865 9.1196375,9.0884373 9.0683238,8.7181909 9.0707559,8.5275392 9.0462668,8.1549193 c 0.2184472,0.2118514 0.1098459,0.3512965 0.131653,0.6214043 0.021777,0.2918411 0.1005015,0.5776769 0.243522,0.832951 0.1187746,0.2460514 0.3171399,0.4987944 0.2585379,0.7885554 -0.044986,0.204182 -0.2818335,0.25466 -0.4563537,0.214593 -0.1990516,-0.0435 -0.3523567,0.110864 -0.5288173,0.161887 -0.045963,0.0088 -0.094508,0.0076 -0.1387933,-0.0088 z"
       sodipodi:nodetypes="cccccccccccccccccccccc" />
    <path
       style="color:#000000;font-style:normal;font-variant:normal;font-weight:normal;font-stretch:normal;font-size:medium;line-height:normal;font-family:sans-serif;font-variant-ligatures:normal;font-variant-position:normal;font-variant-caps:normal;font-variant-numeric:normal;font-variant-alternates:normal;font-variant-east-asian:normal;font-feature-settings:normal;font-variation-settings:normal;text-indent:0;text-align:start;text-decoration:none;text-decoration-line:none;text-decoration-style:solid;text-decoration-color:#000000;letter-spacing:normal;word-spacing:normal;text-transform:none;writing-mode:lr-tb;direction:ltr;text-orientation:mixed;dominant-baseline:auto;baseline-shift:baseline;text-anchor:start;white-space:normal;shape-padding:0;shape-margin:0;inline-size:0;clip-rule:nonzero;display:inline;overflow:visible;visibility:visible;isolation:auto;mix-blend-mode:normal;color-interpolation:sRGB;color-interpolation-filters:linearRGB;solid-color:#000000;solid-opacity:1;vector-effect:none;fill:#ffffff;fill-opacity:0.995984;fill-rule:nonzero;stroke:none;stroke-width:0.132292;stroke-linecap:butt;stroke-linejoin:miter;stroke-miterlimit:2.81;stroke-dasharray:none;stroke-dashoffset:0;stroke-opacity:1;color-rendering:auto;image-rendering:auto;shape-rendering:auto;text-rendering:auto;enable-background:accumulate;stop-color:#000000"
       d="m 12.345674,6.9075161 c 0.340564,0.235647 -0.0366,0.6197813 -0.89483,0.6197813 -0.858235,0 -2.0893266,-0.1133436 -1.8939069,-0.5362078 0.1510287,-0.3268067 1.1023839,-0.4903135 1.7725029,-0.549955 0.658878,-0.058638 0.621369,0.1931627 1.016234,0.4663815 z"
       id="path932-6" />
    <path
       id="rect3399-8-1"
       style="fill:#000000;fill-opacity:0.274194;stroke:none;stroke-width:0.132292;stroke-miterlimit:2.81;stroke-dasharray:none"
       d="M 9.5196762,6.9413302 C 9.9512288,7.4569795 10.955178,7.8630064 11.841579,7.5406312 12.402407,7.3366639 12.817555,6.7017347 13.117073,6.1366469 13.544147,5.3309024 12.832097,7.589676 12.418687,7.9211508 11.658128,8.5309719 10.852583,8.3761988 9.8120303,7.7583832 9.4649857,7.5523295 9.2992346,6.677932 9.5196762,6.9413302 Z"
       sodipodi:nodetypes="sssass" />
    <path
       style="color:#000000;font-style:normal;font-variant:normal;font-weight:normal;font-stretch:normal;font-size:medium;line-height:normal;font-family:sans-serif;font-variant-ligatures:normal;font-variant-position:normal;font-variant-caps:normal;font-variant-numeric:normal;font-variant-alternates:normal;font-variant-east-asian:normal;font-feature-settings:normal;font-variation-settings:normal;text-indent:0;text-align:start;text-decoration:none;text-decoration-line:none;text-decoration-style:solid;text-decoration-color:#000000;letter-spacing:normal;word-spacing:normal;text-transform:none;writing-mode:lr-tb;direction:ltr;text-orientation:mixed;dominant-baseline:auto;baseline-shift:baseline;text-anchor:start;white-space:normal;shape-padding:0;shape-margin:0;inline-size:0;clip-rule:nonzero;display:inline;overflow:visible;visibility:visible;isolation:auto;mix-blend-mode:normal;color-interpolation:sRGB;color-interpolation-filters:linearRGB;solid-color:#000000;solid-opacity:1;vector-effect:none;fill:#170b28;fill-opacity:1;fill-rule:nonzero;stroke:none;stroke-width:0.132292;stroke-linecap:butt;stroke-linejoin:miter;stroke-miterlimit:2.81;stroke-dasharray:none;stroke-dashoffset:0;stroke-opacity:1;color-rendering:auto;image-rendering:auto;shape-rendering:auto;text-rendering:auto;enable-background:accumulate;stop-color:#000000"
       d="m 11.318657,6.3062753 c 0.345751,-0.03077 0.54895,0.025635 0.696301,0.1337602 0.147351,0.1081252 0.225121,0.2307665 0.405192,0.3553629 0.108517,0.075086 0.184494,0.1858613 0.182926,0.3094452 -0.0016,0.1235841 -0.0736,0.2289203 -0.173092,0.3074489 -0.198996,0.1570572 -0.530841,0.2495526 -0.979541,0.2495526 -0.434896,0 -0.961475,-0.027093 -1.368999,-0.1117996 C 9.8776818,7.507692 9.7038206,7.4541846 9.5739708,7.3643784 9.5090444,7.3194756 9.4524627,7.2631276 9.4225152,7.1847005 9.3925647,7.1062736 9.3999465,7.0117708 9.436282,6.9331515 9.4950642,6.805959 9.6087121,6.7248235 9.7431289,6.6556489 9.8775448,6.5864748 10.039077,6.5320843 10.215197,6.4859532 c 0.35224,-0.092262 0.763312,-0.1494043 1.10346,-0.1796779 z m 0.02163,0.2695168 c -0.329968,0.029368 -0.729493,0.085589 -1.058218,0.1716922 -0.164362,0.043052 -0.3115794,0.094471 -0.4189607,0.1497316 -0.1073808,0.055261 -0.168159,0.1155172 -0.1848937,0.1517279 -0.012518,0.027097 -0.011199,0.029222 -0.00786,0.037932 0.00332,0.00871 0.018661,0.028716 0.055077,0.053903 0.072842,0.050376 0.2222634,0.1049017 0.4091254,0.1437424 0.373725,0.077682 0.892552,0.1078066 1.315892,0.1078066 0.409533,0 0.697282,-0.099731 0.816285,-0.1936528 0.05949,-0.04696 0.07062,-0.081111 0.0708,-0.095828 1.87e-4,-0.014717 -0.0051,-0.041113 -0.06688,-0.083849 -0.214785,-0.1486233 -0.315721,-0.2879364 -0.413051,-0.3593567 -0.09733,-0.071421 -0.204181,-0.111717 -0.517308,-0.083849 z"
       id="path934-3" />
    <path
       id="path855-5"
       style="fill:#483737;fill-opacity:0.923387;stroke-width:0.132292;stroke-miterlimit:2.81;stroke-dasharray:none"
       d="m 10.292929,6.8383693 c 0,0.3159071 0.244782,0.5720004 0.546735,0.5720004 0.301954,0 0.546735,-0.2560933 0.546735,-0.5720004 0,-0.3159072 -0.246224,-0.3236338 -0.548178,-0.3236338 -0.301953,0 -0.545292,0.00773 -0.545292,0.3236338 z"
       sodipodi:nodetypes="sssss" />
    <g
       id="g1007"
       inkscape:label="hair"
       style="display:inline;fill:#d45500">
      <path
         id="rect1194"
         style="fill:#d45500;fill-opacity:1;stroke:#000000;stroke-width:0.132292;stroke-miterlimit:2.81;stroke-dasharray:none"
         d="M 4.6539707,5.1103898 C 4.9050278,5.5564771 6.3681884,5.9953222 7.9438219,5.4254525 8.1903368,5.3362939 8.0520839,6.2017643 7.7904355,6.2069535 6.9810867,6.2230048 5.2039581,6.415782 4.5005844,5.8918909 4.2895999,5.734744 4.5241661,4.8797483 4.6539707,5.1103898 Z"
         sodipodi:nodetypes="sssss" />
      <path
         id="rect1194-9"
         style="fill:#d45500;fill-opacity:1;stroke:#000000;stroke-width:0.132292;stroke-miterlimit:2.81;stroke-dasharray:none"
         d="M 12.614577,5.1268256 C 12.36352,5.5729129 10.90036,6.0117579 9.3247262,5.4418883 9.0782113,5.3527297 9.2164642,6.2182001 9.4781124,6.2233892 10.287461,6.2394402 12.06459,6.4322177 12.767963,5.9083266 12.978948,5.7511797 12.744373,4.896184 12.614577,5.1268256 Z"
         sodipodi:nodetypes="sssss" />
      <path
         id="rect3160"
         style="display:inline;fill:#a02c2c;fill-opacity:1;stroke:#000000;stroke-width:0.132292;stroke-miterlimit:2.81;stroke-dasharray:none"
         d="M 3.4071172,2.8154865 C 3.7587175,2.3934066 2.8097139,2.5007613 3.228008,2.1231484 3.8183936,1.5901807 5.8108157,0.61814978 6.5500951,0.40469943 c 1.8396498,-0.5311576 3.9882369,-0.29862665 5.7131829,0.54002838 1.143974,0.55619009 2.073204,1.62539979 2.649627,2.77223669 0.303665,0.6041649 0.102932,1.3636528 0.192098,2.0450513 0.09104,0.6956941 0.46913,1.3140833 0.506311,2.0055249 0.02973,0.5528266 -0.487798,1.3846431 -0.471554,1.8658233 0.04558,1.350215 0.86577,4.412448 0.405036,6.591904 -0.187607,0.88746 -5.067742,0.937336 -5.446232,0.108761 -0.8386061,-2.2484 0.256616,-0.927523 -0.1388281,-2.350528 -0.0492,-0.170632 2.2361081,-1.603503 2.1977141,-1.793694 -0.06242,-0.309189 0.627727,-1.665138 0.552375,-2.6950102 C 12.67749,9.0528437 12.181409,8.1810211 12.150583,7.6860164 12.103893,6.9362826 11.705448,6.6650266 11.531912,6.0758362 11.278731,5.2162361 11.182094,4.1976696 10.688686,4.3140479 9.1817712,4.669478 8.2796373,4.9848603 7.4307854,4.5934765 6.8232499,4.3133577 6.2280376,4.447967 5.7804507,4.886871 5.2017793,5.4543164 5.1650427,6.0878923 5.01132,6.7455234 4.8925113,7.2537915 5.3046677,8.0852137 5.2731829,9.014366 c -0.019909,0.5875338 -0.5313246,1.33008 -0.4692028,1.686607 0.028161,0.161622 1.0173822,2.485343 1.6140826,3.151618 0.9374892,1.046799 1.6345471,0.569328 1.681808,0.810181 0.070435,0.358954 -0.8366889,1.263105 -0.7452295,1.561239 C 7.7856841,17.629097 6.107792,16.431743 4.855077,16.528459 4.1850901,16.580185 3.4285214,16.67923 3.0230311,16.661875 2.0060567,16.618349 1.0808606,17.283502 2.2554812,11.100688 2.5060515,9.7817684 2.0735421,10.507149 1.9631724,9.1600051 1.9181154,8.6100514 2.6365029,6.1330358 2.7560435,5.5982777 2.9701868,4.6403195 2.7822525,3.5656078 3.4071172,2.8154865 Z"
         sodipodi:nodetypes="sssasssssccsssssssssssssssssss"
         inkscape:label="mainhair" />
      <path
         id="path893"
         style="fill:#d45500;stroke:#502d16;stroke-width:0.132292;stroke-linecap:butt;stroke-linejoin:miter;stroke-miterlimit:2.81;stroke-dasharray:none;stroke-opacity:1"
         d="m 4.5769905,16.236624 c 0.1369568,-0.863628 0.056115,-1.742043 -0.033409,-2.605878" />
      <path
         id="rect3160-3-1"
         style="display:inline;fill:#a02c2c;fill-opacity:1;stroke:#000000;stroke-width:0.132292;stroke-miterlimit:2.81;stroke-dasharray:none"
         d="m 4.9070731,10.952398 c -0.5455936,-1.1369241 1.2834238,-0.234625 1.8129768,0.185321 0.3728623,0.295688 -0.066889,1.177527 0.358403,1.924901 0.2356468,0.414108 1.5930267,-0.52498 3.0468251,0.195912 0.173535,0.150651 0.576319,-1.484424 0.993619,-2.000863 0.141522,-0.175145 1.466872,-1.298363 1.435828,-0.685803 -0.04437,0.875526 -0.789242,2.208773 -0.670979,2.854026 0.118054,0.580347 -0.62836,3.01589 -1.106629,2.982031 -0.234848,-0.02291 -1.018277,0.44942 -0.558743,0.424044 0.01178,-0.235309 -0.6876514,0.116148 -0.8065611,-0.08974 C 9.0221067,17.175864 9.0647946,16.328438 8.4703976,16.723597 8.09737,16.953073 7.4425398,16.290993 7.4708005,16.805237 7.4070342,17.014474 7.0120404,16.202781 6.8664824,16.340539 6.7099252,16.49075 6.6943901,15.758173 6.5661947,15.537545 6.3620217,15.181155 5.4900917,13.916523 5.5804652,13.516139 5.6581028,13.191313 5.5122785,12.213544 5.376818,11.931267 Z"
         sodipodi:nodetypes="ssscsscccccccccss"
         inkscape:label="bear" />
      <path
         id="rect3160-3"
         style="display:inline;fill:#d45500;fill-opacity:0.995984;stroke:#000000;stroke-width:0.132292;stroke-miterlimit:2.81;stroke-dasharray:none"
         d="m 6.7172855,11.611039 c 1.2034474,-0.785354 3.011998,-1.093835 3.9835115,-0.01068 0.125269,0.139666 0.517852,0.571122 0.601461,0.748769 0.861154,0.798293 -0.867831,2.484029 -1.195837,1.103189 0.779119,-1.429259 -2.1768124,-2.385214 -2.7266486,-0.859275 0.2373719,0.770935 -0.5233781,2.058573 -1.1799747,0.890131 -0.1057859,-0.463726 -0.1629382,-0.69638 0.090774,-1.133572 0.088076,-0.15177 0.2756415,-0.631104 0.4267135,-0.738564 z"
         sodipodi:nodetypes="csccccscc"
         inkscape:label="moustache" />
      <path
         id="path858"
         style="fill:#d45500;stroke:#502d16;stroke-width:0.132292;stroke-linecap:butt;stroke-linejoin:miter;stroke-miterlimit:2.81;stroke-dasharray:none;stroke-opacity:1"
         d="m 3.0710565,15.213541 c 0.621199,-0.819622 1.1631555,-1.9827 0.617467,-2.976994 C 3.5146379,11.941541 3.4305236,11.584383 3.4962803,11.244794" />
      <path
         id="path860"
         style="fill:#d45500;stroke:#502d16;stroke-width:0.132292;stroke-linecap:butt;stroke-linejoin:miter;stroke-miterlimit:2.81;stroke-dasharray:none;stroke-opacity:1"
         d="M 3.2600447,9.1186756 C 2.7486304,8.3089482 3.5294388,7.5014933 3.6967507,6.7184807 3.7510166,6.1213292 3.3226321,4.6887474 4.3117538,4.8055925 4.4473503,4.8796193 4.5569889,4.992072 4.6539699,5.1103902" />
      <path
         id="path875"
         style="fill:#d45500;stroke:#502d16;stroke-width:0.132292;stroke-linecap:butt;stroke-linejoin:miter;stroke-miterlimit:2.81;stroke-dasharray:none;stroke-opacity:1"
         d="M 13.062798,15.668676 C 13.027363,14.644583 14.10544,13.858758 13.811242,12.808117 13.588876,12.3009 13.138567,11.583384 13.697566,11.125096" />
      <path
         id="path877"
         style="fill:#d45500;stroke:#502d16;stroke-width:0.132292;stroke-linecap:butt;stroke-linejoin:miter;stroke-miterlimit:2.81;stroke-dasharray:none;stroke-opacity:1"
         d="M 14.365737,9.6217027 C 14.749783,8.4839186 14.632327,7.2049309 14.076469,6.1446651 13.871956,5.5424443 13.814179,4.8975323 13.563921,4.3097211" />
      <path
         id="path879"
         style="fill:#d45500;stroke:#502d16;stroke-width:0.132292;stroke-linecap:butt;stroke-linejoin:miter;stroke-miterlimit:2.81;stroke-dasharray:none;stroke-opacity:1"
         d="M 12.862346,7.0826423 C 12.816874,5.9606111 13.002364,4.6566627 12.17272,3.7575737 11.628225,3.44958 11.352823,2.8496 11.191905,2.2717912" />
      <path
         id="path883"
         style="fill:#d45500;stroke:#502d16;stroke-width:0.132292;stroke-linecap:butt;stroke-linejoin:miter;stroke-miterlimit:2.81;stroke-dasharray:none;stroke-opacity:1"
         d="m 4.3097211,7.2496859 c 0.3300329,1.0625067 0.2154031,2.2016399 0,3.2740511" />
      <path
         id="path885"
         style="fill:#d45500;stroke:#502d16;stroke-width:0.132292;stroke-linecap:butt;stroke-linejoin:miter;stroke-miterlimit:2.81;stroke-dasharray:none;stroke-opacity:1"
         d="m 11.860085,16.036171 c 0.849951,-0.663141 0.981018,-1.876394 0.741766,-2.862356 0.0015,-0.270213 0.133193,-0.528857 0.327265,-0.712374" />
      <path
         id="path889"
         style="fill:#d45500;stroke:#502d16;stroke-width:0.132292;stroke-linecap:butt;stroke-linejoin:miter;stroke-miterlimit:2.81;stroke-dasharray:none;stroke-opacity:1"
         d="M 13.664154,10.390103 C 13.370865,9.5754913 13.487003,8.6932874 13.363472,7.8510423" />
      <path
         id="path891"
         style="fill:#d45500;stroke:#502d16;stroke-width:0.132292;stroke-linecap:butt;stroke-linejoin:miter;stroke-miterlimit:2.81;stroke-dasharray:none;stroke-opacity:1"
         d="m 14.198693,16.236624 c 0.752066,-0.815772 0.492008,-2.001503 0.363424,-2.991127 -0.04834,-0.498568 -0.03141,-1.019778 0.171113,-1.485638" />
      <path
         id="path897"
         style="fill:#d45500;stroke:#502d16;stroke-width:0.132292;stroke-linecap:butt;stroke-linejoin:miter;stroke-miterlimit:2.81;stroke-dasharray:none;stroke-opacity:1"
         d="M 6.5146946,2.0045214 C 5.3984558,1.958121 5.1897678,3.2848923 4.5101732,3.8754081" />
      <path
         id="path899"
         style="fill:#d45500;stroke:#502d16;stroke-width:0.132292;stroke-linecap:butt;stroke-linejoin:miter;stroke-miterlimit:2.81;stroke-dasharray:none;stroke-opacity:1"
         d="m 8.3187639,2.0713388 c -5.15e-5,0.739247 -0.3158148,1.5070259 -0.9354433,1.937704" />
      <path
         id="path901"
         style="fill:#d45500;stroke:#502d16;stroke-width:0.132292;stroke-linecap:butt;stroke-linejoin:miter;stroke-miterlimit:2.81;stroke-dasharray:none;stroke-opacity:1"
         d="M 9.5214767,1.6704345 C 9.8180956,2.2265502 9.804059,2.8942505 10.122833,3.4410951"
         inkscape:label="path901" />
    </g>
  </g>
</svg>
