<svg xmlns="http://www.w3.org/2000/svg" width="64" height="64" viewBox="0 0 16.93 16.93">
    <g style="display:inline">
        <path
            d="M14.43 5.4c0 1.65-.04 2.87-1.5 4.91-1.19 1.66-1.08 4.4-4.24 4.35-3.12-.04-3.06-2.63-4.28-4.42A7.3 7.3 0 0 1 2.95 5.4c0-3 2.77-5.03 5.7-5.03 2.87 0 5.78 2.03 5.78 5.03z"
            style="display:inline;fill:#e3dedb;fill-opacity:.995984;stroke:#170b28;stroke-width:.132292;stroke-miterlimit:2.81;stroke-dasharray:none" />
        <path d="M4.95 6.85c-.34.24.04.62.9.62.85 0 2.09-.1 1.89-.53-.15-.33-1.1-.5-1.77-.55-.66-.06-.62.2-1.02.46Z"
            style="color:#000;font-style:normal;font-variant:normal;font-weight:400;font-stretch:normal;font-size:medium;line-height:normal;font-family:sans-serif;font-variant-ligatures:normal;font-variant-position:normal;font-variant-caps:normal;font-variant-numeric:normal;font-variant-alternates:normal;font-variant-east-asian:normal;font-feature-settings:normal;font-variation-settings:normal;text-indent:0;text-align:start;text-decoration:none;text-decoration-line:none;text-decoration-style:solid;text-decoration-color:#000;letter-spacing:normal;word-spacing:normal;text-transform:none;writing-mode:lr-tb;direction:ltr;text-orientation:mixed;dominant-baseline:auto;baseline-shift:baseline;text-anchor:start;white-space:normal;shape-padding:0;shape-margin:0;inline-size:0;clip-rule:nonzero;display:inline;overflow:visible;visibility:visible;isolation:auto;mix-blend-mode:normal;color-interpolation:sRGB;color-interpolation-filters:linearRGB;solid-color:#000;solid-opacity:1;vector-effect:none;fill:#fff;fill-opacity:.995984;fill-rule:nonzero;stroke:none;stroke-width:.132292;stroke-linecap:butt;stroke-linejoin:miter;stroke-miterlimit:2.81;stroke-dasharray:none;stroke-dashoffset:0;stroke-opacity:1;color-rendering:auto;image-rendering:auto;shape-rendering:auto;text-rendering:auto;enable-background:accumulate;stop-color:#000" />
        <path
            d="M7.78 6.87c-.43.51-1.44.92-2.32.6-.57-.2-.98-.84-1.28-1.4-.43-.81.28 1.44.7 1.78.76.6 1.56.45 2.6-.17.35-.2.52-1.08.3-.81Z"
            style="fill:#000;fill-opacity:.274194;stroke:none;stroke-width:.132292;stroke-miterlimit:2.81;stroke-dasharray:none" />
        <path
            d="M5.98 6.25c-.35-.03-.55.03-.7.14-.15.1-.22.23-.4.35-.11.08-.19.19-.19.31 0 .13.08.23.18.3.2.17.53.26.98.26.43 0 .96-.03 1.37-.11.2-.05.37-.1.5-.19a.33.33 0 0 0 .14-.43c-.06-.13-.17-.2-.3-.28-.14-.07-.3-.12-.48-.17-.35-.09-.76-.15-1.1-.18Zm-.02.27c.33.03.73.09 1.05.17.17.05.32.1.42.15.11.06.17.12.19.16v.03c0 .01-.01.03-.05.06-.07.05-.22.1-.4.14-.38.08-.9.1-1.32.1-.41 0-.7-.09-.82-.18-.06-.05-.07-.09-.07-.1 0-.01 0-.04.07-.08.21-.15.31-.3.4-.36.1-.07.21-.11.53-.09z"
            style="color:#000;font-style:normal;font-variant:normal;font-weight:400;font-stretch:normal;font-size:medium;line-height:normal;font-family:sans-serif;font-variant-ligatures:normal;font-variant-position:normal;font-variant-caps:normal;font-variant-numeric:normal;font-variant-alternates:normal;font-variant-east-asian:normal;font-feature-settings:normal;font-variation-settings:normal;text-indent:0;text-align:start;text-decoration:none;text-decoration-line:none;text-decoration-style:solid;text-decoration-color:#000;letter-spacing:normal;word-spacing:normal;text-transform:none;writing-mode:lr-tb;direction:ltr;text-orientation:mixed;dominant-baseline:auto;baseline-shift:baseline;text-anchor:start;white-space:normal;shape-padding:0;shape-margin:0;inline-size:0;clip-rule:nonzero;display:inline;overflow:visible;visibility:visible;isolation:auto;mix-blend-mode:normal;color-interpolation:sRGB;color-interpolation-filters:linearRGB;solid-color:#000;solid-opacity:1;vector-effect:none;fill:#170b28;fill-opacity:1;fill-rule:nonzero;stroke:none;stroke-width:.132292;stroke-linecap:butt;stroke-linejoin:miter;stroke-miterlimit:2.81;stroke-dasharray:none;stroke-dashoffset:0;stroke-opacity:1;color-rendering:auto;image-rendering:auto;shape-rendering:auto;text-rendering:auto;enable-background:accumulate;stop-color:#000" />
        <path
            d="M7.7 12.37c.4-.17.87-.12 1-.12.17 0 .66-.04 1.14.12.16.05.49.7 0 .54-.96-.32-1.27-.29-2.24-.02-.54.14-.07-.46.1-.52z"
            style="display:inline;fill:#e3dbe2;fill-opacity:.995984;stroke:#6c5d53;stroke-width:.132292;stroke-miterlimit:2.81;stroke-dasharray:none" />
        <path d="M7 6.79c0 .31-.24.57-.54.57a.56.56 0 0 1-.55-.57c0-.32.25-.33.55-.33.3 0 .54.01.54.33z"
            style="fill:#483737;fill-opacity:.923387;stroke-width:.132292;stroke-miterlimit:2.81;stroke-dasharray:none" />
        <path
            d="M8.56 10.77c-.18-.2-.47-.15-.7-.16-.22-.06-.26-.34-.2-.53.08-.23.27-.4.34-.65.14-.35.17-.73.15-1.1-.02-.1.1-.35.13-.12.02.24-.04.5-.05.74-.05.35-.14.7-.38.97-.09.12-.14.4.05.44.2-.04.36.06.5.19.14.14.35.14.5 0 .13-.09.28-.2.45-.18.18-.01.26-.24.16-.39-.15-.28-.4-.55-.39-.9-.05-.36-.05-.55-.07-.93.21.22.1.36.13.63.02.29.1.57.24.83.12.25.32.5.26.79-.05.2-.28.25-.46.21-.2-.04-.35.11-.53.16h-.13z"
            style="fill:#000;stroke-width:.132292;stroke-miterlimit:2.81;stroke-dasharray:none" />
        <path d="M12.35 6.9c.34.24-.04.63-.9.63s-2.09-.12-1.9-.54c.16-.33 1.1-.49 1.78-.55.66-.06.62.2 1.02.47z"
            style="color:#000;font-style:normal;font-variant:normal;font-weight:400;font-stretch:normal;font-size:medium;line-height:normal;font-family:sans-serif;font-variant-ligatures:normal;font-variant-position:normal;font-variant-caps:normal;font-variant-numeric:normal;font-variant-alternates:normal;font-variant-east-asian:normal;font-feature-settings:normal;font-variation-settings:normal;text-indent:0;text-align:start;text-decoration:none;text-decoration-line:none;text-decoration-style:solid;text-decoration-color:#000;letter-spacing:normal;word-spacing:normal;text-transform:none;writing-mode:lr-tb;direction:ltr;text-orientation:mixed;dominant-baseline:auto;baseline-shift:baseline;text-anchor:start;white-space:normal;shape-padding:0;shape-margin:0;inline-size:0;clip-rule:nonzero;display:inline;overflow:visible;visibility:visible;isolation:auto;mix-blend-mode:normal;color-interpolation:sRGB;color-interpolation-filters:linearRGB;solid-color:#000;solid-opacity:1;vector-effect:none;fill:#fff;fill-opacity:.995984;fill-rule:nonzero;stroke:none;stroke-width:.132292;stroke-linecap:butt;stroke-linejoin:miter;stroke-miterlimit:2.81;stroke-dasharray:none;stroke-dashoffset:0;stroke-opacity:1;color-rendering:auto;image-rendering:auto;shape-rendering:auto;text-rendering:auto;enable-background:accumulate;stop-color:#000" />
        <path
            d="M9.52 6.94c.43.52 1.44.92 2.32.6.56-.2.98-.84 1.28-1.4.42-.8-.29 1.45-.7 1.78-.76.61-1.57.46-2.6-.16-.36-.2-.52-1.08-.3-.82Z"
            style="fill:#000;fill-opacity:.274194;stroke:none;stroke-width:.132292;stroke-miterlimit:2.81;stroke-dasharray:none" />
        <path
            d="M11.32 6.3c.34-.02.55.03.7.14.14.1.22.23.4.36.1.07.18.18.18.3 0 .13-.07.23-.17.31-.2.16-.53.25-.98.25-.43 0-.96-.03-1.37-.11a1.4 1.4 0 0 1-.5-.19.39.39 0 0 1-.16-.18.33.33 0 0 1 .02-.25c.06-.12.17-.2.3-.27.14-.07.3-.13.48-.17.35-.1.76-.15 1.1-.18zm.02.28c-.33.03-.73.08-1.06.17-.16.04-.31.1-.42.15-.1.05-.17.11-.18.15l-.01.04s.02.03.06.05c.07.05.22.1.4.14.38.08.9.11 1.32.11.41 0 .7-.1.82-.2.06-.04.07-.07.07-.09 0-.01 0-.04-.07-.08-.21-.15-.32-.29-.41-.36-.1-.07-.2-.11-.52-.08z"
            style="color:#000;font-style:normal;font-variant:normal;font-weight:400;font-stretch:normal;font-size:medium;line-height:normal;font-family:sans-serif;font-variant-ligatures:normal;font-variant-position:normal;font-variant-caps:normal;font-variant-numeric:normal;font-variant-alternates:normal;font-variant-east-asian:normal;font-feature-settings:normal;font-variation-settings:normal;text-indent:0;text-align:start;text-decoration:none;text-decoration-line:none;text-decoration-style:solid;text-decoration-color:#000;letter-spacing:normal;word-spacing:normal;text-transform:none;writing-mode:lr-tb;direction:ltr;text-orientation:mixed;dominant-baseline:auto;baseline-shift:baseline;text-anchor:start;white-space:normal;shape-padding:0;shape-margin:0;inline-size:0;clip-rule:nonzero;display:inline;overflow:visible;visibility:visible;isolation:auto;mix-blend-mode:normal;color-interpolation:sRGB;color-interpolation-filters:linearRGB;solid-color:#000;solid-opacity:1;vector-effect:none;fill:#170b28;fill-opacity:1;fill-rule:nonzero;stroke:none;stroke-width:.132292;stroke-linecap:butt;stroke-linejoin:miter;stroke-miterlimit:2.81;stroke-dasharray:none;stroke-dashoffset:0;stroke-opacity:1;color-rendering:auto;image-rendering:auto;shape-rendering:auto;text-rendering:auto;enable-background:accumulate;stop-color:#000" />
        <path d="M10.3 6.84c0 .31.24.57.54.57.3 0 .55-.26.55-.57 0-.32-.25-.33-.55-.33-.3 0-.55.01-.55.33z"
            style="fill:#483737;fill-opacity:.923387;stroke-width:.132292;stroke-miterlimit:2.81;stroke-dasharray:none" />
        <g style="display:inline;fill:#d45500">
            <path
                d="M4.65 5.11c.26.45 1.72.89 3.3.32.24-.1.1.77-.16.78-.8.01-2.59.2-3.29-.32-.21-.16.02-1.01.15-.78ZM12.61 5.13c-.25.44-1.71.88-3.29.31-.24-.09-.1.78.16.78.8.02 2.58.21 3.29-.31.2-.16-.03-1.01-.16-.78Z"
                style="fill:#d45500;fill-opacity:1;stroke:#000;stroke-width:.132292;stroke-miterlimit:2.81;stroke-dasharray:none" />
            <path
                d="M3.4 2.82c.36-.43-.59-.32-.17-.7A13.3 13.3 0 0 1 6.55.4a8.24 8.24 0 0 1 5.71.54 6.14 6.14 0 0 1 2.65 2.78c.3.6.1 1.36.2 2.04.09.7.46 1.32.5 2 .03.56-.49 1.4-.47 1.87.05 1.35.87 4.42.4 6.6-.18.88-5.06.93-5.44.1-.84-2.24.26-.92-.14-2.35-.05-.17 2.24-1.6 2.2-1.79-.06-.3.63-1.67.55-2.7-.03-.44-.53-1.3-.56-1.8-.05-.75-.44-1.02-.62-1.61-.25-.86-.35-1.88-.84-1.77-1.5.36-2.41.67-3.26.28-.6-.28-1.2-.14-1.65.3-.58.56-.61 1.2-.77 1.86-.12.5.3 1.34.26 2.26-.02.6-.53 1.33-.47 1.7.03.15 1.02 2.48 1.62 3.14.94 1.05 1.63.57 1.68.81.07.36-.84 1.27-.75 1.56.44 1.4-1.24.21-2.5.3-.66.06-1.42.16-1.83.14-1.01-.04-1.94.62-.76-5.56.25-1.32-.19-.6-.3-1.94-.04-.55.68-3.03.8-3.56.21-.96.02-2.03.65-2.78Z"
                style="display:inline;fill:#a02c2c;fill-opacity:1;stroke:#000;stroke-width:.132292;stroke-miterlimit:2.81;stroke-dasharray:none" />
            <path d="M4.58 16.24c.13-.87.05-1.75-.04-2.6"
                style="fill:#d45500;stroke:#502d16;stroke-width:.132292;stroke-linecap:butt;stroke-linejoin:miter;stroke-miterlimit:2.81;stroke-dasharray:none;stroke-opacity:1" />
            <path
                d="M4.9 10.95c-.54-1.13 1.29-.23 1.82.19.37.3-.07 1.18.36 1.92.23.42 1.6-.52 3.05.2.17.15.57-1.49.99-2 .14-.18 1.47-1.3 1.43-.69-.04.88-.78 2.21-.67 2.86.12.58-.62 3.01-1.1 2.98-.24-.02-1.02.45-.56.42.01-.23-.69.12-.8-.09-.4.44-.36-.41-.95-.02-.37.23-1.03-.43-1 .09-.06.2-.46-.6-.6-.47-.16.15-.18-.58-.3-.8-.2-.36-1.08-1.62-.99-2.02.08-.33-.07-1.3-.2-1.59Z"
                style="display:inline;fill:#a02c2c;fill-opacity:1;stroke:#000;stroke-width:.132292;stroke-miterlimit:2.81;stroke-dasharray:none" />
            <path
                d="M6.72 11.61c1.2-.78 3-1.1 3.98-.01.13.14.52.57.6.75.86.8-.87 2.48-1.2 1.1.79-1.43-2.17-2.38-2.72-.86.24.77-.52 2.06-1.18.9-.1-.47-.16-.7.1-1.14.08-.15.27-.63.42-.74z"
                style="display:inline;fill:#d45500;fill-opacity:.995984;stroke:#000;stroke-width:.132292;stroke-miterlimit:2.81;stroke-dasharray:none" />
            <path
                d="M3.07 15.21c.62-.82 1.16-1.98.62-2.97-.18-.3-.26-.66-.2-1M3.26 9.12c-.51-.81.27-1.62.44-2.4.05-.6-.38-2.03.61-1.91.14.07.25.18.34.3M13.06 15.67c-.03-1.03 1.05-1.81.75-2.86-.22-.5-.67-1.23-.11-1.68M14.37 9.62a4.48 4.48 0 0 0-.3-3.48c-.2-.6-.26-1.24-.5-1.83M12.86 7.08c-.04-1.12.14-2.42-.69-3.32-.54-.31-.82-.91-.98-1.49M4.31 7.25c.33 1.06.22 2.2 0 3.27M11.86 16.04c.85-.67.98-1.88.74-2.87 0-.27.14-.53.33-.7M13.66 10.39c-.29-.81-.17-1.7-.3-2.54M14.2 16.24c.75-.82.5-2 .36-3a3 3 0 0 1 .17-1.48M6.51 2c-1.11-.04-1.32 1.28-2 1.88M8.32 2.07c0 .74-.32 1.5-.94 1.94M9.52 1.67c.3.56.28 1.22.6 1.77"
                style="fill:#d45500;stroke:#502d16;stroke-width:.132292;stroke-linecap:butt;stroke-linejoin:miter;stroke-miterlimit:2.81;stroke-dasharray:none;stroke-opacity:1" />
        </g>
    </g>
</svg>